<svg width="64" height="64" viewBox="0 0 64 64" fill="none" xmlns="http://www.w3.org/2000/svg">
  <defs>
    <linearGradient id="coveGrad" x1="0" y1="0" x2="64" y2="64" gradientUnits="userSpaceOnUse">
      <stop stop-color="#4E9B8A"/>
      <stop offset="0.55" stop-color="#3E8A9E"/>
      <stop offset="1" stop-color="#2C6A7B"/>
    </linearGradient>
  </defs>
  <rect width="64" height="64" rx="16" fill="url(#coveGrad)"/>
  <path d="M10 38c5 0 5-6 11-6s6 6 11 6 5-6 11-6 6 6 11 6" stroke="#FFFFFF" stroke-width="3.2" stroke-linecap="round" opacity="0.95"/>
  <path d="M10 27c5 0 5-5 11-5s6 5 11 5 5-5 11-5 6 5 11 5" stroke="#FFFFFF" stroke-width="2.6" stroke-linecap="round" opacity="0.55"/>
  <path d="M10 48c5 0 5-5 11-5s6 5 11 5 5-5 11-5 6 5 11 5" stroke="#FFFFFF" stroke-width="2.6" stroke-linecap="round" opacity="0.35"/>
</svg>
